<svg  xmlns="http://www.w3.org/2000/svg" xmlns:xlink="http://www.w3.org/1999/xlink" width="910" height="300" viewBox="0 0 934 324"><path transform="translate(0 100)" d="M46.1,-63.5L46.1,-78Q46.1,-78.9 47.5,-79.4Q48.9,-79.9 49.6,-79.9Q50.3,-79.9 51.7,-79.4Q53.1,-78.9 53.1,-78L53.1,-63.5L80.9,-63.5Q82.5,-63.2 83.85,-62.85Q85.2,-62.5 86.3,-61.75Q87.4,-61 88.05,-59.75Q88.7,-58.5 88.7,-56.5L88.7,-28.8Q88.7,-27.8 87.95,-26.75Q87.2,-25.7 86.1,-24.85Q85,-24 83.8,-23.45Q82.6,-22.9 81.6,-22.9Q80.9,-22.9 78.85,-22.85Q76.8,-22.8 74.05,-22.8Q71.3,-22.8 68.15,-22.7Q65,-22.6 62.25,-22.6Q59.5,-22.6 57.45,-22.55Q55.4,-22.5 54.7,-22.5L53.1,-22.5L53.1,4.1Q53.1,5.6 52,6.95Q50.9,8.3 49.1,8Q47.5,7.7 46.8,6.5Q46.1,5.3 46.1,4.1L46.1,-56.5L18.7,-56.5Q18.5,-56.5 18.2,-56.2Q17.9,-55.9 17.7,-55.45Q17.5,-55 17.35,-54.5Q17.2,-54 17.2,-53.8L17.2,-32.3Q17.2,-31.6 17.6,-31.1Q18,-30.6 18.7,-30.35Q19.4,-30.1 20.15,-30Q20.9,-29.9 21.5,-29.9L49.9,-29.9L49.9,-25.2Q49.9,-24.3 48.9,-23.3Q47.5,-23.3 41.95,-23.25Q36.4,-23.2 33,-23.1Q29.6,-23 26.55,-22.95Q23.5,-22.9 22.3,-22.9L21.5,-22.9Q20,-22.9 18.15,-23.3Q16.3,-23.7 14.55,-24.6Q12.8,-25.5 11.65,-27Q10.5,-28.5 10.5,-30.7L10.5,-54.9Q10.5,-58 12.85,-60.15Q15.2,-62.3 17.9,-63.1Q19.3,-63.1 22.5,-63.15Q25.7,-63.2 29.3,-63.3Q32.9,-63.4 36.1,-63.45Q39.3,-63.5 40.6,-63.5L46.1,-63.5ZM53.1,-29.9L81.6,-29.9L81.6,-55.6L81.3,-56.3L81,-56.5L53.1,-56.5L53.1,-29.9Z"></path><path transform="translate(100 100)" d="M44.9,-74.1Q44.9,-78 48,-78Q49.5,-78 50.65,-76.55Q51.8,-75.1 52.65,-73.25Q53.5,-71.4 53.9,-69.5Q54.3,-67.6 54.3,-66.6L54.3,-65.9Q54.3,-65.4 53.35,-64.45Q52.4,-63.5 52,-64.3L88.7,-64.3Q90.3,-64.3 91.25,-63Q92.2,-61.7 92.2,-60.4Q92.2,-59.4 91.55,-57.95Q90.9,-56.5 89.5,-56.5L76.6,-56.5Q76.1,-51.2 74.2,-45.9Q72.3,-40.6 69.25,-35.85Q66.2,-31.1 62.45,-26.85Q58.7,-22.6 54.7,-19.2L54.7,-19Q54.7,-18.8 55,-18.5Q55.3,-18.2 56.1,-17.7Q56.9,-17.2 57.75,-16.65Q58.6,-16.1 59.15,-15.8Q59.7,-15.5 59.9,-15.5L89.7,0.2Q90,0.4 90.35,0.7Q90.7,1 91.1,1.2Q91.5,1.6 92.2,1.8L92.2,3.3Q92.2,4.8 91.4,6.2Q90.6,7.6 88.7,7.6L87.8,7.6L56,-8.9Q55.6,-9.2 54.7,-9.8Q53.8,-10.4 52.75,-11.05Q51.7,-11.7 50.75,-12.3Q49.8,-12.9 49.3,-13.2Q49.1,-13.4 48.9,-13.45Q48.7,-13.5 48.4,-13.5Q48.1,-13.5 47.95,-13.45Q47.8,-13.4 47.6,-13.2Q47.3,-12.9 45.85,-11.95Q44.4,-11 42.8,-9.95Q41.2,-8.9 39.8,-7.95Q38.4,-7 38.1,-6.9Q37.2,-6.4 34.85,-5Q32.5,-3.6 29.85,-2.1Q27.2,-0.6 24.9,0.75Q22.6,2.1 21.7,2.5Q20.2,3.1 18.8,3.9Q17.4,4.7 16.05,5.6Q14.7,6.5 13.25,7.05Q11.8,7.6 10.2,7.6Q8.2,7.6 7.2,6.4Q6.2,5.2 6.2,3.7Q6.2,2.4 6.85,1.2Q7.5,-0 8.8,-0.6Q9.8,-1 12.3,-2.2Q14.8,-3.4 17.55,-4.75Q20.3,-6.1 22.7,-7.3Q25.1,-8.5 26,-9.2Q26.3,-9.3 28.35,-10.45Q30.4,-11.6 33.1,-13.15Q35.8,-14.7 38.5,-16.3Q41.2,-17.9 42.8,-18.9L43.5,-19.5Q40.2,-22.9 36.65,-27.15Q33.1,-31.4 30.1,-36.05Q27.1,-40.7 24.95,-45.85Q22.8,-51 22,-56.2L20.3,-56.5L9.4,-56.5Q7.9,-56.5 7.45,-57.9Q7,-59.3 7,-60Q7,-61.3 7.5,-62.6Q8,-63.9 9.8,-63.9L48.9,-63.9Q47.8,-65.4 46.8,-67.95Q45.8,-70.5 44.9,-72.8L44.9,-74.1ZM29.3,-56.1L29.3,-55.7Q29.9,-51.6 31.7,-47.5Q33.5,-43.4 35.95,-39.6Q38.4,-35.8 41.35,-32.45Q44.3,-29.1 47.2,-26.3Q47.8,-25.7 48.15,-25.3Q48.5,-24.9 49.2,-24.9L49.4,-24.9Q52.5,-27.9 55.95,-31.5Q59.4,-35.1 62.2,-39.15Q65,-43.2 66.85,-47.7Q68.7,-52.2 68.7,-56.5L29.7,-56.5Q29.4,-56.5 29.35,-56.4Q29.3,-56.3 29.3,-56.1Z"></path><path transform="translate(200 100)" d="M12.9,6.8Q11.4,6.8 10.75,5.35Q10.1,3.9 10.1,2.9L10.1,-69.4Q10.1,-72 11.4,-73.55Q12.7,-75.1 14.55,-75.9Q16.4,-76.7 18.6,-76.95Q20.8,-77.2 22.7,-77.2L77,-77.2Q79.2,-77.2 81.3,-76.8Q83.4,-76.4 85.05,-75.35Q86.7,-74.3 87.7,-72.55Q88.7,-70.8 88.7,-68.2L88.7,-4.5Q88.7,-1.5 87.45,0.55Q86.2,2.6 84.15,3.8Q82.1,5 79.6,5.5Q77.1,6 74.6,6L71.5,6Q71.2,6 70.25,5.8Q69.3,5.6 68.25,5.4Q67.2,5.2 66.25,4.95Q65.3,4.7 64.9,4.4Q63.7,2.9 63.7,1.7Q63.7,-0.5 65.5,-1.8L67.2,-1.8Q69.5,-1.8 71.65,-1.4Q73.8,-1 76.2,-1L78.4,-1Q81.2,-2.1 81.2,-4.9Q81.2,-5.6 81.25,-7.8Q81.3,-10 81.3,-12.95Q81.3,-15.9 81.4,-19.2Q81.5,-22.5 81.5,-25.45Q81.5,-28.4 81.55,-30.55Q81.6,-32.7 81.6,-33.4L81.6,-49.5L81.6,-65.9Q81.6,-67.4 81,-68.3Q80.4,-69.2 79.45,-69.65Q78.5,-70.1 77.2,-70.3Q75.9,-70.5 74.6,-70.5L71.9,-70.5Q70.7,-70.5 67,-70.45Q63.3,-70.4 58.3,-70.4Q53.3,-70.4 47.65,-70.3Q42,-70.2 37,-70.2Q32,-70.2 28.3,-70.15Q24.6,-70.1 23.4,-70.1Q22.2,-70.1 21.15,-70.1Q20.1,-70.1 19.25,-69.85Q18.4,-69.6 17.85,-68.95Q17.3,-68.3 17.2,-67L17.2,-22.5Q17.2,-21 17.15,-17.25Q17.1,-13.5 17,-9.2Q16.9,-4.9 16.85,-1.15Q16.8,2.6 16.8,4.1Q16.4,5.8 15.3,6.3Q14.2,6.8 12.9,6.8ZM40.2,-60.9Q40.6,-62 41.45,-62.55Q42.3,-63.1 43,-63.1Q45.2,-63.1 45.85,-61.95Q46.5,-60.8 46.5,-59.2Q46.5,-56.3 45.85,-53.35Q45.2,-50.4 44.2,-47.55Q43.2,-44.7 42.05,-42Q40.9,-39.3 39.9,-36.9L39.9,-35.5Q40.1,-35.1 40.85,-33.9Q41.6,-32.7 42.45,-31.25Q43.3,-29.8 44.1,-28.5Q44.9,-27.2 45.3,-26.6Q45.5,-26.1 46,-25.3Q46.5,-24.5 46.95,-23.55Q47.4,-22.6 47.75,-21.6Q48.1,-20.6 48.1,-19.8Q48.1,-18.7 47.25,-17.85Q46.4,-17 45.3,-17L44.9,-17Q44.6,-17 43.8,-17.1Q43,-17.2 42.6,-18Q42.4,-18.4 41.9,-19.35Q41.4,-20.3 40.85,-21.35Q40.3,-22.4 39.75,-23.35Q39.2,-24.3 39.1,-24.6Q39,-24.9 38.65,-25.55Q38.3,-26.2 37.85,-26.9Q37.4,-27.6 36.95,-28.1Q36.5,-28.6 36.3,-28.7L36.1,-28.7L25.4,-9.8Q25,-9.1 24.15,-8.75Q23.3,-8.4 22.7,-8.4Q21,-8.4 20.05,-9.55Q19.1,-10.7 19.1,-12L19.1,-12.8L31.2,-35.1L31.2,-35.4Q31.2,-36.5 30.45,-38Q29.7,-39.5 28.6,-41.1Q27.5,-42.7 26.4,-44Q25.3,-45.3 24.7,-46Q24.2,-46.4 23.5,-47.4Q22.8,-48.4 22.05,-49.35Q21.3,-50.3 20.7,-51.05Q20.1,-51.8 19.9,-52L19.5,-52.9Q19.5,-53.2 19.3,-53.5L19.1,-54Q19.1,-55.1 19.75,-56.6Q20.4,-58.1 21.9,-58.1Q23.6,-58.1 25.6,-55.75Q27.6,-53.4 29.55,-50.65Q31.5,-47.9 33.05,-45.75Q34.6,-43.6 35,-43.6Q37.1,-47.5 38.25,-51.8Q39.4,-56.1 40.2,-60.9ZM64.1,-43.6Q64,-43.6 64,-43.6Q64.1,-43.8 64.1,-44.1Q64.4,-44.8 64.7,-45.75Q65,-46.7 65.35,-47.7Q65.7,-48.7 65.95,-49.55Q66.2,-50.4 66.4,-50.8Q66.5,-51 66.8,-52.4Q67.1,-53.8 67.35,-55.4Q67.6,-57 67.8,-58.35Q68,-59.7 68,-60Q68.2,-61.7 69.05,-62.4Q69.9,-63.1 71.5,-63.1Q72.5,-63.1 73.55,-62.4Q74.6,-61.7 74.6,-60Q74.6,-56.9 74.15,-54.1Q73.7,-51.3 72.9,-48.65Q72.1,-46 71.05,-43.35Q70,-40.7 68.8,-37.9Q68.5,-37.4 68.45,-37.25Q68.4,-37.1 68.4,-36.6L68.4,-36.2Q68.4,-36 68.75,-35.3Q69.1,-34.6 69.1,-34.3L78.1,-17.1L78.1,-16.3Q78.1,-14.9 77,-14.2Q75.9,-13.5 74.6,-13.5Q73.9,-13.5 73.1,-14.05Q72.3,-14.6 71.9,-15.3L64.5,-28.2L64.5,-28.2L64.4,-28.1Q64.2,-28 63.95,-27.4Q63.7,-26.8 63.3,-26.05Q62.9,-25.3 62.5,-24.65Q62.1,-24 62,-23.9Q61.5,-23 60.3,-20.95Q59.1,-18.9 57.65,-16.65Q56.2,-14.4 54.9,-12.35Q53.6,-10.3 53,-9.4Q51.8,-8 50,-8Q48.6,-8 47.75,-8.85Q46.9,-9.7 46.9,-10.8Q46.9,-12.4 47.7,-14.15Q48.5,-15.9 49.65,-17.65Q50.8,-19.4 51.9,-20.9Q53,-22.4 53.6,-23.5Q54,-24.2 55,-25.9Q56,-27.6 57,-29.5Q58,-31.4 58.9,-33.1Q59.8,-34.8 60.1,-35.5L60.5,-36.7L60.5,-36.9L60.2,-37.5Q60.1,-37.5 59.45,-38.3Q58.8,-39.1 58.05,-39.95Q57.3,-40.8 56.65,-41.6Q56,-42.4 55.9,-42.6Q55.6,-42.8 54.75,-44Q53.9,-45.2 52.9,-46.5Q51.9,-47.8 51,-48.95Q50.1,-50.1 50.1,-50.4L49.6,-50.8Q49.6,-51 49.4,-51.5Q49.3,-51.7 49.2,-52.2Q49.5,-53.6 50.7,-54.45Q51.9,-55.3 53.1,-55.3Q54,-55.3 55.1,-54.4Q56.2,-53.5 57.35,-52.15Q58.5,-50.8 59.6,-49.25Q60.7,-47.7 61.7,-46.4Q62.7,-45.1 63.35,-44.35Q64,-43.6 64.1,-43.6Z"></path><path transform="translate(300 100)" d="M45.3,-74.5Q45.6,-75.3 45.8,-76.1Q46,-76.9 46.4,-77.7Q46.8,-78.5 47.45,-79Q48.1,-79.5 49.2,-79.5Q50.2,-79.5 50.9,-79.15Q51.6,-78.8 52,-77.7L54.6,-69.4L84.1,-69.4Q84.6,-69 85,-68.9Q85.4,-68.7 85.8,-68.55Q86.2,-68.4 86.5,-68.1Q88.2,-67.1 89.15,-65.55Q90.1,-64 90.5,-62.25Q90.9,-60.5 90.95,-58.6Q91,-56.7 91,-54.9L91,-51.3Q89.7,-49.4 87.9,-49.4Q85.1,-49.4 84.25,-51.55Q83.4,-53.7 83.3,-56.2Q83.2,-58.7 83.25,-60.5Q83.3,-62.3 82.8,-62.3L18,-62.3L16.7,-62Q16.6,-61.6 16.4,-61.2Q16,-60.3 16,-60Q15.8,-59 15.75,-57.55Q15.7,-56.1 15.3,-54.65Q14.9,-53.2 14,-52.1Q13.1,-51 11.3,-51Q9.6,-51 9.1,-52.6Q8.6,-54.2 8.6,-55.7Q8.6,-58.6 8.9,-61.1Q9.2,-63.6 10.3,-65.45Q11.4,-67.3 13.4,-68.35Q15.4,-69.4 18.7,-69.4Q20.3,-69.4 24.3,-69.45Q28.3,-69.5 32.8,-69.6Q37.3,-69.7 41.3,-69.75Q45.3,-69.8 46.5,-69.8L46.5,-69.8L46.5,-70.2Q46.5,-70.4 46.35,-70.95Q46.2,-71.5 46.05,-72.2Q45.9,-72.9 45.65,-73.5Q45.4,-74.1 45.3,-74.5ZM23.4,-49.8Q23.4,-51.2 24.75,-52.1Q26.1,-53 27.3,-53L70.3,-53Q72.4,-53 74.1,-51.6Q75.8,-50.2 75.8,-48.3Q75.8,-45.4 74.15,-43.4Q72.5,-41.4 70.15,-39.95Q67.8,-38.5 65.35,-37.45Q62.9,-36.4 61.1,-35.4Q60.4,-35.1 59.35,-34.55Q58.3,-34 57.25,-33.4Q56.2,-32.8 55.45,-32.25Q54.7,-31.7 54.6,-31.6L54.3,-31.3L54.3,-28.4Q55.3,-28.4 58.15,-28.35Q61,-28.3 64.65,-28.3Q68.3,-28.3 72.3,-28.2Q76.3,-28.1 79.9,-28.1Q83.5,-28.1 86.35,-28.05Q89.2,-28 90.6,-28Q92,-28 92.7,-26.85Q93.4,-25.7 93.4,-24.5Q93.4,-23.6 93.15,-22.65Q92.9,-21.7 91.4,-21.3Q90.8,-21.3 89.15,-21.25Q87.5,-21.2 85.7,-21.1Q83.9,-21 82.3,-20.95Q80.7,-20.9 80.1,-20.9L58.6,-20.9Q58.3,-20.9 57.6,-20.85Q56.9,-20.8 56.05,-20.7Q55.2,-20.6 54.5,-20.55Q53.8,-20.5 53.9,-20.5Q53.9,-16.2 53.85,-11.05Q53.8,-5.9 53.5,-1.4Q53.1,1.7 51.5,3.55Q49.9,5.4 47.7,6.4Q45.5,7.4 42.95,7.7Q40.4,8 37.9,8Q36.6,8 35.1,8.1Q33.6,8.2 32.2,8Q30.8,7.8 29.85,6.9Q28.9,6 28.9,4.1Q28.9,2.8 29.65,1.65Q30.4,0.5 32,0.5L43,0.5Q43.8,0.5 44.5,-0.1Q45.2,-0.7 45.6,-1.65Q46,-2.6 46.25,-3.6Q46.5,-4.6 46.5,-5.3L46.5,-20.9L14.8,-20.9Q14.4,-20.9 13.5,-20.95Q12.6,-21 11.55,-21.1Q10.5,-21.2 9.55,-21.25Q8.6,-21.3 8.2,-21.3Q6.7,-21.7 6.45,-22.65Q6.2,-23.6 6.2,-24.5L6.2,-26.2Q6.6,-26.6 7.6,-27.3Q8.6,-28 9,-28L46.5,-28Q46.5,-30.6 47.6,-33.6Q48.7,-36.6 51.8,-38.1L66.2,-45.1Q66.2,-45.2 66.5,-45.4Q67,-45.9 67.4,-45.9L67.3,-45.7L66.7,-45.9L27.7,-45.9Q25.6,-45.9 24.5,-46.75Q23.4,-47.6 23.4,-49.8Z"></path><path transform="translate(400 100)" d="M61.3,-48.7L61.3,-74.8Q61.3,-76.4 62.3,-77.6Q63.3,-78.8 65.2,-78.8Q66.2,-78.8 67.65,-78.15Q69.1,-77.5 69.1,-76L69.1,-48.3L89.8,-48.3Q91.2,-48.3 92.1,-46.95Q93,-45.6 93,-44.4Q93,-42.4 90.7,-41.6Q89.6,-41.6 86.9,-41.55Q84.2,-41.5 81.2,-41.4Q78.2,-41.3 75.55,-41.25Q72.9,-41.2 71.9,-41.2L69.1,-41.2L69.1,4.8Q69.1,5.6 68.5,6.1Q67.9,6.6 67.2,6.95Q66.5,7.3 65.8,7.45Q65.1,7.6 64.8,7.6Q63.9,7.6 63,7Q62.1,6.4 61.7,5.3Q61.7,3.8 61.65,0.7Q61.6,-2.4 61.6,-6.3Q61.6,-10.2 61.5,-14.5Q61.4,-18.8 61.4,-22.7Q61.4,-26.6 61.35,-29.65Q61.3,-32.7 61.3,-34.2L61.3,-41.1L61.2,-41.2L41.8,-41.2L37.9,-41.6Q36.7,-41.6 36.5,-42.9Q36.3,-44.2 36.3,-44.8Q36.3,-46.8 37.65,-47.6Q39,-48.4 40.7,-48.55Q42.4,-48.7 44.1,-48.5Q45.8,-48.3 46.9,-48.3Q47.8,-48.3 49.9,-48.35Q52,-48.4 54.3,-48.5Q56.6,-48.6 58.7,-48.65Q60.8,-48.7 61.3,-48.7ZM16,-73.7Q16,-74.9 16.7,-76.05Q17.4,-77.2 18.7,-77.2Q21,-77.2 22.35,-75.75Q23.7,-74.3 24.9,-72.8Q25.2,-72.5 26,-71.35Q26.8,-70.2 27.7,-68.9Q28.6,-67.6 29.45,-66.35Q30.3,-65.1 30.8,-64.5Q31.2,-63.8 31.25,-63.55Q31.3,-63.3 31.3,-62.7Q31.3,-61.1 30.15,-60.35Q29,-59.6 27.7,-59.6Q26.3,-59.6 25.25,-60.4Q24.2,-61.2 23.5,-62.3Q22.8,-63.4 22.3,-64.55Q21.8,-65.7 21.2,-66.3Q20.9,-66.6 20.25,-67.4Q19.6,-68.2 18.85,-69.05Q18.1,-69.9 17.45,-70.7Q16.8,-71.5 16.5,-71.8Q16.1,-72.2 16.05,-72.8Q16,-73.4 16,-73.7ZM5.5,-46.7Q5.5,-47.5 6.45,-48.5Q7.4,-49.5 8.2,-49.5L23.8,-49.5Q24.9,-49.5 25.55,-48.6Q26.2,-47.7 26.5,-46.55Q26.8,-45.4 26.9,-44.3Q27,-43.2 27,-42.8Q27,-41.4 27.05,-38.65Q27.1,-35.9 27.1,-32.4Q27.1,-28.9 27.2,-25.05Q27.3,-21.2 27.3,-17.8Q27.3,-14.4 27.35,-11.65Q27.4,-8.9 27.4,-7.8L27.5,-7.7L27.6,-7.7Q27.9,-7.9 29,-8.7Q30.1,-9.5 31.2,-10.45Q32.3,-11.4 33.4,-12.25Q34.5,-13.1 34.9,-13.4Q35.1,-13.7 35.95,-14.2Q36.8,-14.7 37.5,-14.7Q39.4,-14.7 40.2,-13.3Q41,-11.9 41,-10.4L41,-9.4L38.6,-7L24.8,3.2Q23.9,3.8 23.35,4.15Q22.8,4.5 21.9,4.5Q20.2,4.5 19.1,3.5Q18,2.5 18,0.5Q18,-0.4 18.95,-1.8Q19.9,-3.2 19.9,-4.5L19.9,-42.8L8.6,-42.8Q6.9,-42.8 6.2,-44.15Q5.5,-45.5 5.5,-46.7Z"></path><path transform="translate(500 100)" d="M22.6,-73.3Q22.6,-75.1 23.4,-76.55Q24.2,-78 26.2,-78Q27,-78 27.95,-77.8Q28.9,-77.6 29.3,-76.5Q29.6,-70.5 29.9,-65.35Q30.2,-60.2 30.5,-54.5Q30.5,-54.5 30.9,-54.5Q35.9,-54.5 41.05,-55.5Q46.2,-56.5 51.6,-56.5L53.6,-56.5Q54.6,-56.1 55.45,-55Q56.3,-53.9 56.3,-53Q56.3,-51.4 54.75,-50.7Q53.2,-50 51.35,-49.7Q49.5,-49.4 47.75,-49.4Q46,-49.4 45.3,-49.4Q43.4,-49.3 41.85,-49.15Q40.3,-49 38.85,-48.85Q37.4,-48.7 35.8,-48.45Q34.2,-48.2 32,-47.9L31.7,-47.9L31.3,-47.7L31.3,-46.3Q31.3,-45.1 31.5,-41.95Q31.7,-38.8 32.1,-35.25Q32.5,-31.7 33.05,-28.6Q33.6,-25.5 34.2,-24.5Q34.5,-24.6 35.7,-25.8Q36.9,-27 38.25,-28.5Q39.6,-30 40.7,-31.45Q41.8,-32.9 42.3,-33.6Q42.6,-34.2 43.5,-35.55Q44.4,-36.9 45.4,-38.35Q46.4,-39.8 47.3,-41.1Q48.2,-42.4 48.5,-43Q48.9,-43.5 49.55,-43.55Q50.2,-43.6 50.8,-43.6Q51.8,-43.6 52.65,-43.1Q53.5,-42.6 53.5,-41.3Q53.5,-39.4 52.35,-37.25Q51.2,-35.1 50.3,-33.6Q47.1,-28.3 43.85,-23.95Q40.6,-19.6 36.3,-15.7L36.3,-15.5Q36.3,-15.2 36.5,-14.9Q36.5,-14.6 36.7,-14.5Q36.8,-13.9 37.3,-13.05Q37.8,-12.2 38.3,-11.2Q38.8,-10.2 39.2,-9.35Q39.6,-8.5 39.8,-8.2Q40.7,-6.7 41.85,-5.2Q43,-3.7 44.35,-2.4Q45.7,-1.1 47.35,-0.3Q49,0.5 50.8,0.5Q51.7,0.5 52.15,-0.5Q52.6,-1.5 52.75,-3.1Q52.9,-4.7 53,-6.75Q53.1,-8.8 53.5,-10.5Q53.9,-12.2 54.85,-13.45Q55.8,-14.7 57.8,-14.7Q58.8,-14.7 59.85,-14Q60.9,-13.3 60.9,-12L60.9,-11.6Q60.7,-8.6 59.95,-5.5Q59.2,-2.4 58.6,0.3Q58.3,1.5 57.65,2.75Q57,4 56.2,5.1Q55.4,6.2 54.2,6.9Q53,7.6 51.6,7.6Q47.7,7.6 44.4,5.85Q41.1,4.1 38.45,1.35Q35.8,-1.4 33.8,-4.65Q31.8,-7.9 30.6,-10.8L30.6,-10.8L29.9,-10.5Q26.8,-7.3 22.65,-3.95Q18.5,-0.6 15.1,2Q14.8,2.4 14.15,2.45Q13.5,2.5 12.9,2.5Q11.6,2.5 10.3,1.75Q9,1 9,-0.6Q9,-2.2 9.65,-3.1Q10.3,-4 11.5,-4.8L27.4,-17.3Q27.7,-17.5 27.7,-17.55Q27.7,-17.6 27.7,-17.8Q27.7,-19.8 27.1,-22.25Q26.5,-24.7 26.2,-26.7Q25.6,-31.2 25.05,-34.8Q24.5,-38.4 24.2,-42.8Q24.2,-43.3 24.15,-44Q24.1,-44.7 24,-45.3Q23.9,-46.2 23.8,-46.9L23.7,-47.1L10.6,-45.1Q9.3,-44.9 8.35,-45.9Q7.4,-46.9 7.4,-48.3Q7.4,-49.9 8.7,-50.75Q10,-51.6 11.8,-51.95Q13.6,-52.3 15.75,-52.5Q17.9,-52.7 19.6,-52.85Q21.3,-53 22.35,-53.3Q23.4,-53.6 23.4,-54.1Q23.4,-58.9 23,-63.55Q22.6,-68.2 22.6,-73.3ZM78.9,0.9Q80.8,0.9 82.4,-0.15Q84,-1.2 84,-3.4L84,-72.1Q84,-74.2 84.65,-76.1Q85.3,-78 87.9,-78Q89.3,-78 90.15,-77.1Q91,-76.2 91,-74.8L91,-2.6Q91,-0.6 90.25,1.15Q89.5,2.9 88.25,4.25Q87,5.6 85.3,6.4Q83.6,7.2 81.6,7.2L71.1,7.2Q67.6,7.2 67.6,3.7Q67.6,1.7 68.8,0.9Q70,0.1 71.9,0.1Q73.6,0.1 75.4,0.5Q77.2,0.9 78.9,0.9ZM34.8,-74.7Q35.4,-75.3 35.95,-75.65Q36.5,-76 37.5,-76Q38.6,-76 40.55,-74.7Q42.5,-73.4 44.4,-71.65Q46.3,-69.9 47.75,-67.95Q49.2,-66 49.2,-64.7Q49.2,-63 48.35,-62.1Q47.5,-61.2 46.1,-61.2Q45.8,-61.2 45.2,-61.25Q44.6,-61.3 44.2,-61.7L35.2,-70.6Q34.9,-71.1 34.85,-71.85Q34.8,-72.6 34.8,-72.9L34.8,-74.7ZM68,-16.6Q67,-16.6 66.45,-17.15Q65.9,-17.7 65.5,-18.45Q65.1,-19.2 64.95,-19.95Q64.8,-20.7 64.8,-21.3L64.8,-66.3Q64.8,-68 66.2,-68.3Q67.6,-68.6 68.7,-68.6L70.1,-68.6L71.5,-67.2Q71.6,-66.1 71.7,-65.1Q71.8,-64.3 71.85,-63.4Q71.9,-62.5 71.9,-62L71.9,-59.2L71.9,-56.1Q71.9,-54.7 71.85,-51.85Q71.8,-49 71.8,-45.35Q71.8,-41.7 71.7,-37.7Q71.6,-33.7 71.6,-30.1Q71.6,-26.5 71.55,-23.6Q71.5,-20.7 71.5,-19.4Q71.5,-18 70.35,-17.3Q69.2,-16.6 68,-16.6Z"></path><path transform="translate(0 200)" d="M0.3,-68.1L51.1,-68.1L51.1,-60.3L30,-60.3L30,-1L21.3,-1L21.3,-60.3L0.3,-60.3L0.3,-68.1Z"></path><path transform="translate(51 200)" d="M6.3,-68.1L14.9,-68.1L14.9,-44.1Q17.7,-47.2 22.5,-49.7Q26.4,-51.6 30.8,-51.7Q34.7,-51.6 38.4,-50.3Q41.8,-49 44.2,-46.4Q46.5,-43.6 47.4,-40.1Q48.2,-37.1 48.2,-33.9L48.2,-1L39.7,-1L39.7,-32.5Q39.6,-34.6 39.2,-36.6Q38.4,-38.9 37,-40.8Q35.5,-42.6 33.4,-43.4Q31,-44.3 28.4,-44.4Q24.9,-44.3 21.8,-42.8Q17.7,-40.9 14.9,-37.7L14.9,-1L6.3,-1L6.3,-68.1Z"></path><path transform="translate(105 200)" d="M4.2,-25.4Q4.2,-30.7 5.7,-35.7Q7.3,-40.6 10.6,-44.5Q14,-48.2 18.8,-50.2Q22.7,-51.6 27.1,-51.7Q31.3,-51.6 35.2,-50.3Q39.9,-48.5 43.3,-45Q46.6,-41.3 48.1,-36.6Q49.6,-31.9 49.6,-26.7L49.6,-22.7L12.7,-22.7Q12.7,-19.4 13.7,-16Q14.7,-13 17,-10.7Q19.2,-8.4 22.2,-7.4Q24.8,-6.6 27.5,-6.6Q31.8,-6.5 35.7,-8.5Q39.5,-10.8 41.7,-14.9L49.6,-13.6Q46.5,-6.4 40.4,-2.7Q34.3,0.7 27.4,0.6Q23,0.5 19,-0.7Q14.2,-2.4 10.7,-6Q7.3,-9.8 5.7,-14.7Q4.1,-19.8 4.2,-25.4ZM12.7,-29.5L41.1,-29.5Q41,-32.1 40,-35Q39,-37.8 37,-40Q32.9,-44.3 27.1,-44.4Q21.2,-44.3 17.1,-40Q12.9,-35.4 12.7,-29.5Z"></path><path transform="translate(159 200)" d=""></path><path transform="translate(191 200)" d="M8.1,-68.1L32.8,-68.1Q37.2,-68 41.6,-67.1Q46.2,-66.1 49.9,-63.2Q53.1,-60.4 54.7,-56.5Q56.2,-52.5 56.2,-48.1Q56.2,-43.5 54.6,-39.2Q53,-35.3 49.8,-32.5Q46,-29.5 41.4,-28.5Q37.1,-27.5 32.8,-27.6L16.7,-27.6L16.7,-1L8.1,-1L8.1,-68.1ZM16.7,-60.3L16.7,-35.5L31.6,-35.5Q34.5,-35.5 37.3,-36Q40.3,-36.6 43,-38.3Q45.2,-40 46.3,-42.4Q47.4,-45.2 47.5,-48.1Q47.4,-50.9 46.3,-53.5Q45.1,-55.9 43,-57.5Q40.4,-59.1 37.4,-59.8Q34.6,-60.3 31.9,-60.3L16.7,-60.3Z"></path><path transform="translate(251 200)" d="M6.3,-50.3L14.8,-50.3L14.8,-41.2Q17.4,-45.2 22.6,-48.2Q25.1,-49.9 28,-50.8Q30,-51.3 32.5,-51.4L32.5,-44.2Q27.1,-43.8 22.9,-41.2Q18,-38.2 14.8,-33.7L14.8,-1L6.3,-1L6.3,-50.3Z"></path><path transform="translate(284 200)" d="M4,-25.6Q4,-31 5.6,-36Q7.1,-40.8 10.6,-44.6Q14.1,-48.3 18.9,-50.2Q23.1,-51.6 27.5,-51.7Q31.9,-51.6 35.9,-50.3Q40.8,-48.5 44.4,-44.8Q47.7,-40.9 49.4,-36.1Q50.9,-31 51,-25.6Q50.9,-20.1 49.3,-14.8Q47.7,-10 44.3,-6.1Q40.8,-2.5 35.9,-0.7Q31.8,0.5 27.5,0.6Q23.1,0.5 19,-0.7Q14.2,-2.6 10.6,-6.2Q7.1,-10.1 5.6,-14.9Q3.9,-20.1 4,-25.6ZM12.5,-25.6Q12.5,-21.5 13.6,-17.5Q14.7,-14.1 16.9,-11.4Q21.1,-6.7 27.5,-6.8Q30.2,-6.8 32.8,-7.7Q35.9,-8.9 38,-11.4Q40.2,-14.2 41.2,-17.5Q42.2,-21.5 42.3,-25.6Q42.2,-29.6 41.2,-33.7Q40,-36.9 37.8,-39.6Q33.6,-44.1 27.5,-44.1Q21.3,-44 17,-39.5Q14.9,-36.9 13.7,-33.6Q12.5,-29.6 12.5,-25.6Z"></path><path transform="translate(339 200)" d="M-3.1,6.8Q-1.1,6.9 0.7,7Q2.9,7.1 4.5,5.4Q6,3.4 5.9,0.9L5.9,-50.3L14.4,-50.3L14.4,2.2Q14.3,4.3 13.9,6.7Q13.3,9.1 11.5,11.1Q9.9,12.7 7.7,13.7Q5.2,14.5 2.5,14.5Q-0.2,14.4 -3.1,14.1L-3.1,6.8ZM5.9,-68.1L14.4,-68.1L14.4,-57.3L5.9,-57.3L5.9,-68.1Z"></path><path transform="translate(360 200)" d="M4.2,-25.4Q4.2,-30.7 5.7,-35.7Q7.3,-40.6 10.6,-44.5Q14,-48.2 18.8,-50.2Q22.7,-51.6 27.1,-51.7Q31.3,-51.6 35.2,-50.3Q39.9,-48.5 43.3,-45Q46.6,-41.3 48.1,-36.6Q49.6,-31.9 49.6,-26.7L49.6,-22.7L12.7,-22.7Q12.7,-19.4 13.7,-16Q14.7,-13 17,-10.7Q19.2,-8.4 22.2,-7.4Q24.8,-6.6 27.5,-6.6Q31.8,-6.5 35.7,-8.5Q39.5,-10.8 41.7,-14.9L49.6,-13.6Q46.5,-6.4 40.4,-2.7Q34.3,0.7 27.4,0.6Q23,0.5 19,-0.7Q14.2,-2.4 10.7,-6Q7.3,-9.8 5.7,-14.7Q4.1,-19.8 4.2,-25.4ZM12.7,-29.5L41.1,-29.5Q41,-32.1 40,-35Q39,-37.8 37,-40Q32.9,-44.3 27.1,-44.4Q21.2,-44.3 17.1,-40Q12.9,-35.4 12.7,-29.5Z"></path><path transform="translate(414 200)" d="M4,-25.5Q3.9,-31 5.6,-36.4Q7.4,-41.1 10.7,-45Q14.3,-48.6 19.2,-50.3Q23.2,-51.6 27.6,-51.7Q30.9,-51.6 34,-50.8Q37.7,-49.9 40.9,-47.7Q46.2,-43.7 48.4,-37.2L40,-36Q36.1,-43.9 27.6,-44.1Q21.3,-44.1 17,-39.5Q14.9,-36.9 13.7,-33.6Q12.5,-29.5 12.6,-25.5Q12.5,-21.4 13.7,-17.5Q14.7,-14.1 16.9,-11.4Q21,-6.7 27.2,-6.8Q31.7,-6.7 35.4,-9.3Q38.6,-11.8 40.4,-15.8L48.6,-14.6Q46.2,-7.6 40.7,-3.5Q37.6,-1.3 33.8,-0.2Q30.4,0.5 27.2,0.6Q23,0.5 19.1,-0.7Q14.3,-2.5 10.8,-6.1Q7.3,-9.9 5.7,-14.8Q4,-19.9 4,-25.5Z"></path><path transform="translate(466 200)" d="M0.6,-50.3L8.6,-50.3L8.6,-63L17,-63L17,-50.3L27.6,-50.3L27.6,-43.2L17,-43.2L17,-11.9Q16.8,-9.5 18.3,-8Q19,-7.3 20.1,-6.9Q21.3,-6.6 22.9,-6.7Q24.9,-6.7 27.5,-7.7L27.5,-0.5Q23.2,0.6 19.2,0.6Q16.8,0.5 14.7,-0.1Q12.7,-0.6 11.1,-2.1Q9.6,-3.6 9,-5.6Q8.5,-7.3 8.6,-9.3L8.6,-43.2L0.6,-43.2L0.6,-50.3Z"></path><path transform="translate(495 200)" d=""></path><path transform="translate(527 200)" d="M8.1,-68.1L55.5,-68.1L55.5,-60.3L16.8,-60.3L16.8,-38.3L51.9,-38.3L51.9,-30.4L16.8,-30.4L16.8,-1L8.1,-1L8.1,-68.1Z"></path><path transform="translate(587 200)" d="M4,-25.6Q4,-31 5.6,-36Q7.1,-40.8 10.6,-44.6Q14.1,-48.3 18.9,-50.2Q23.1,-51.6 27.5,-51.7Q31.9,-51.6 35.9,-50.3Q40.8,-48.5 44.4,-44.8Q47.7,-40.9 49.4,-36.1Q50.9,-31 51,-25.6Q50.9,-20.1 49.3,-14.8Q47.7,-10 44.3,-6.1Q40.8,-2.5 35.9,-0.7Q31.8,0.5 27.5,0.6Q23.1,0.5 19,-0.7Q14.2,-2.6 10.6,-6.2Q7.1,-10.1 5.6,-14.9Q3.9,-20.1 4,-25.6ZM12.5,-25.6Q12.5,-21.5 13.6,-17.5Q14.7,-14.1 16.9,-11.4Q21.1,-6.7 27.5,-6.8Q30.2,-6.8 32.8,-7.7Q35.9,-8.9 38,-11.4Q40.2,-14.2 41.2,-17.5Q42.2,-21.5 42.3,-25.6Q42.2,-29.6 41.2,-33.7Q40,-36.9 37.8,-39.6Q33.6,-44.1 27.5,-44.1Q21.3,-44 17,-39.5Q14.9,-36.9 13.7,-33.6Q12.5,-29.6 12.5,-25.6Z"></path><path transform="translate(642 200)" d="M6.3,-50.3L14.8,-50.3L14.8,-41.2Q17.4,-45.2 22.6,-48.2Q25.1,-49.9 28,-50.8Q30,-51.3 32.5,-51.4L32.5,-44.2Q27.1,-43.8 22.9,-41.2Q18,-38.2 14.8,-33.7L14.8,-1L6.3,-1L6.3,-50.3Z"></path><path transform="translate(675 200)" d=""></path><path transform="translate(707 200)" d="M0.3,-68.1L9.8,-68.1L25.4,-12.5L25.1,-12.5L41.5,-68.1L51.3,-68.1L68.2,-12.5L67.8,-12.5L83.4,-68.1L92.9,-68.1L72.9,-1L63,-1L46.3,-57.1L46.7,-57.1L30.2,-1L20.5,-1L0.3,-68.1Z"></path><path transform="translate(800 200)" d="M4.2,-25.4Q4.2,-30.7 5.7,-35.7Q7.3,-40.6 10.6,-44.5Q14,-48.2 18.8,-50.2Q22.7,-51.6 27.1,-51.7Q31.3,-51.6 35.2,-50.3Q39.9,-48.5 43.3,-45Q46.6,-41.3 48.1,-36.6Q49.6,-31.9 49.6,-26.7L49.6,-22.7L12.7,-22.7Q12.7,-19.4 13.7,-16Q14.7,-13 17,-10.7Q19.2,-8.4 22.2,-7.4Q24.8,-6.6 27.5,-6.6Q31.8,-6.5 35.7,-8.5Q39.5,-10.8 41.7,-14.9L49.6,-13.6Q46.5,-6.4 40.4,-2.7Q34.3,0.7 27.4,0.6Q23,0.5 19,-0.7Q14.2,-2.4 10.7,-6Q7.3,-9.8 5.7,-14.7Q4.1,-19.8 4.2,-25.4ZM12.7,-29.5L41.1,-29.5Q41,-32.1 40,-35Q39,-37.8 37,-40Q32.9,-44.3 27.1,-44.4Q21.2,-44.3 17.1,-40Q12.9,-35.4 12.7,-29.5Z"></path><path transform="translate(854 200)" d="M6.3,-68.1L14.8,-68.1L14.8,-44.3Q17.5,-47.2 21.9,-49.4Q26.1,-51.6 30.9,-51.7Q35,-51.6 38.9,-50.3Q43.4,-48.5 46.5,-44.7Q49.6,-40.9 50.8,-36.1Q52.2,-30.7 52.3,-25.1Q52.2,-19.4 50.8,-14.1Q49.4,-9.4 46.3,-5.7Q43,-2.2 38.4,-0.6Q34.6,0.5 30.5,0.6Q25.6,0.5 21.3,-1.3Q17.4,-3.2 14.8,-5.6L14.8,-1L6.3,-1L6.3,-68.1ZM29.5,-44.1Q25.6,-43.9 22,-42Q17.9,-39.8 14.8,-36.3L14.8,-13.4Q17.7,-10.3 21.9,-8.5Q25.6,-6.9 29.5,-6.9Q35.8,-6.8 39.9,-11.7Q41.8,-14.6 42.7,-17.8Q43.6,-21.4 43.7,-25.1Q43.6,-28.8 42.8,-32.4Q41.9,-35.8 40.1,-38.8Q38.1,-41.6 35,-42.9Q32.3,-44 29.5,-44.1Z"></path></svg>